<svg id="Layer_1" data-name="Layer 1" xmlns="http://www.w3.org/2000/svg" viewBox="0 0 500 500"><defs><style>.cls-1{fill:#1d1d1b;stroke:#1d1d1b;stroke-miterlimit:10;}.cls-2{fill:#fff;fill-rule:evenodd;}</style></defs><circle class="cls-1" cx="250" cy="250" r="245"/><path class="cls-2" d="M166,315.05c26.19-49.58,73.06-53.73,108.39-46.27C186.71,270.65,173,332.14,173,332.14c22-33.15,55.74-48.06,95.22-51.89,31.13-3,38.13-15.23,51.75-23-1.17-16,15.54-1.23,20.86,1.81a33.82,33.82,0,0,0,24.43,3.8,42.25,42.25,0,0,0,8.94-3c12.05-5.41,16.46,2.63,1.35,9.5-33.08,15-88.5,57-65.76,113.71,2.39,5.95,10.7,13.38,5.27,13.81-22.7,1.81-38.31-36.36-36.35-54.51-4.54,14.56.74,35.58,8.83,47.15,7.33,10.5-6.1,5.78-9.52,3.55-8.81-5.76-16.79-12.72-20.87-25.6-28,1.21-46.19.08-69.78-14.1,7.41,8.2,18.52,13.41,26.87,15.55A27.29,27.29,0,0,0,219.79,390c6.25,7.81-6,4.22-7.49,3.47A30.05,30.05,0,0,1,195.89,373a26.22,26.22,0,0,0,3.61,14.12c7,11.58-3.39,11.62-10.85,7.27-4.43-2.59-9.89-7.89-16.26-18.09-7.36-11.77-10.78-29.43-10.29-43.56-28.28-17.68-41.53-64.34-24.79-99.55,19.89-41.82,16.61-83.73-12-69.34,9.88-43.07,85.05-39.72,71.17,21.56-9,40-62.5,86.78-30.51,129.61Zm92.49-159.9c-6.12-42.29-39.62-60.17-72.72-57.87C147,100,108.84,129.64,115.6,170.77c8.3-52.18,70.14-73.4,102-34.38,43.25,53-43.06,106.49-45.54,154.42,29.12-44.85,96.06-69.15,86.44-135.66Zm75.9,96.71c9.7,8.16,23.75,7.57,35.1,3.73C357.66,252.39,346.6,249.35,334.36,251.86Z"/></svg>