<svg id="Layer_1" data-name="Layer 1" xmlns="http://www.w3.org/2000/svg" viewBox="0 0 1366 768"><defs><style>.cls-1{fill:#00b0b4;}.cls-2{fill:#b8c5c5;}.cls-3{fill:#fefefe;}.cls-4{fill:#00bbbf;}.cls-5{fill-rule:evenodd;}</style></defs><g id="aRijAs.tif"><path class="cls-1" d="M1157.72,263.07h33.65a3.41,3.41,0,0,1,.16,1.79q0,166.4,0,332.8c0,2.53-.26,2.87-2.77,3.16-14.34,1.64-28.65,3.45-43,5.12-9.53,1.12-19,2.36-28.59,3.47-12.67,1.48-25.34,3-38,4.53q-17.12,2-34.21,4.12c-11.68,1.42-23.36,2.77-35,4.18q-15.78,1.9-31.57,3.81l-28.92,3.46c-9.81,1.17-19.61,2.39-29.42,3.54-11.68,1.36-23.35,2.81-35,4.18-9.64,1.12-19.27,2.36-28.92,3.48-11.68,1.36-23.36,2.79-35,4.19q-15.78,1.88-31.56,3.8c-9.64,1.17-19.28,2.3-28.92,3.46-9.81,1.19-19.62,2.34-29.42,3.54-10.52,1.28-21,2.5-31.57,3.78-8.92,1.09-17.85,2.14-26.77,3.21-11.68,1.4-23.36,2.77-35,4.18L603.54,671q-17.5,2.12-35,4.18c-10.52,1.25-21,2.56-31.56,3.81-9.64,1.15-19.28,2.34-28.92,3.46-9.81,1.15-19.61,2.41-29.42,3.53-10.8,1.24-21.59,2.6-32.39,3.87-10.53,1.24-21,2.54-31.57,3.8l-26.28,3.14c-10.69,1.27-21.37,2.58-32.06,3.86-11.68,1.39-23.36,2.76-35,4.18-10.52,1.28-21.05,2.49-31.56,3.8-9.64,1.2-19.29,2.28-28.93,3.46-9.8,1.2-19.61,2.35-29.41,3.54-10.19,1.23-20.38,2.52-30.59,3.58a51.68,51.68,0,0,1-6.82.35c-1.7,0-1.87-1-1.87-2.43q0-35.7,0-71.4,0-131.91,0-263.81a6.34,6.34,0,0,1,.35-3.11c.86-.9,2-.79,3.11-.91,16.65-1.94,33.27-4,49.91-6l41.65-5q24.94-3,49.91-6l40.49-4.82c10.58-1.25,21.15-2.56,31.73-3.83,12.5-1.51,25-3,37.51-4.48L478.5,344q17.52-2.12,35-4.18c10.52-1.25,21-2.57,31.56-3.8,11.68-1.37,23.35-2.86,35-4.18,8.65-1,17.29-2.13,25.94-3.12,10.75-1.24,21.48-2.61,32.23-3.86,7.66-.9,15.31-1.86,23-2.77q13.47-1.6,26.94-3.23c6.77-.81,13.55-1.59,20.33-2.42,9-1.11,18.07-2.16,27.1-3.25,10.35-1.25,20.71-2.47,31.07-3.73,9.09-1.11,18.18-2.17,27.27-3.26q11.31-1.38,22.64-2.72,13.47-1.62,26.93-3.24c9.76-1.16,19.5-2.37,29.26-3.51s19.38-2.34,29.08-3.48,19.5-2.36,29.25-3.52,19.28-2.33,28.92-3.46c7.94-.93,15.86-2,23.8-2.87,10.8-1.24,21.59-2.62,32.4-3.85,6.56-.75,13.1-1.6,19.66-2.39,9-1.07,18-2.12,26.94-3.22,9.75-1.2,19.5-2.32,29.25-3.52s19.28-2.31,28.92-3.46c8.76-1,17.51-2.15,26.29-3.09C1150.78,263.46,1154.28,263.63,1157.72,263.07Z"/><path class="cls-2" d="M191.77,379.29l.34,0a4.08,4.08,0,0,1,.15,2q0,167.92,0,335.85c0,.93-.32,2.06,1.16,2.25-.49.45-1.1.25-1.66.29Z"/><path class="cls-3" d="M723.56,448.33q0-30.81,0-61.61c0-1.27.23-1.78,1.64-1.94,14.49-1.68,29-3.44,43.47-5.19l46-5.53,40-4.78,43.3-5.21q22.73-2.71,45.46-5.47c1.48-.18,1.93.1,1.93,1.7q-.07,56.86,0,113.72c.05,31.31-11.14,58.23-31.63,81.56-14.09,16-30.71,28.49-50.86,35.93A118.28,118.28,0,0,1,806,598.29c-22-2.83-40.41-12.82-55.8-28.58-14.71-15.06-23.08-33.16-25.67-54a125.94,125.94,0,0,1-.94-15.77Q723.58,474.13,723.56,448.33Z"/><path class="cls-3" d="M962.74,467.29q0-54.36,0-108.71c0-1.55.39-2.05,1.93-2.23q27.12-3.15,54.22-6.43,28.44-3.42,56.86-6.86,27.11-3.26,54.22-6.47c5-.59,9.92-1.15,14.86-1.83,1.3-.17,1.68.06,1.68,1.44q-.06,35.71,0,71.42c0,1.4-.47,1.76-1.72,1.91-10.53,1.22-21,2.49-31.58,3.74-3.8.45-7.6.93-11.4,1.34-1,.1-1.36.38-1.33,1.41q.1,3.5,0,7c0,1.11.36,1.3,1.36,1.18,7.65-.95,15.31-1.85,23-2.78q10.15-1.21,20.32-2.48c1-.12,1.37,0,1.36,1.15q0,25.31,0,50.61c0,1.18-.53,1.36-1.46,1.47l-33.55,4c-3.14.38-6.28.79-9.43,1.08-1.27.11-1.66.62-1.59,1.87a43.47,43.47,0,0,1,0,5.82c-.12,1.63.33,2.1,2,1.87,5.66-.76,11.34-1.39,17-2.08,8.59-1,17.19-2,25.78-3.15,1.45-.19,1.21.62,1.21,1.43v33.8c0,12.54,0,25.08,0,37.63,0,1.52-.56,1.83-1.84,2q-38.85,4.62-77.69,9.3-31.15,3.74-62.31,7.43c-13.39,1.61-26.78,3.2-40.16,4.89-1.63.21-1.77-.33-1.77-1.7Q962.77,521.82,962.74,467.29Z"/><path class="cls-3" d="M382.39,411l140,220.29-280,33.58Q312.55,537.7,382.39,411Z"/><path class="cls-3" d="M645.46,389.56c27.38,0,49.51,7.85,68.61,24.1,1.08.91,1.07,1.37.15,2.39q-40,44.54-80,89.12a3,3,0,0,1-.34.37c-1.23,1-1.14,1.66.1,2.75q40,35.07,80,70.21c1,.91,1.25,1.38.2,2.52-17.29,18.82-37.79,32.51-62.66,39.12-20.07,5.33-40.26,6.39-60.59,1.28-30.66-7.7-65.8-35.48-73-78.95-6.21-37.58,2.95-71.3,26.59-101.07,13.48-17,29.63-30.71,49.4-39.95A126.81,126.81,0,0,1,645.46,389.56Z"/><path class="cls-4" d="M193.43,719.33c-.91.06-1.54-.17-1.33-1.28a2.67,2.67,0,0,0,0-.49q0-169.15,0-338.29l.67-.1a9.58,9.58,0,0,0-.35,2.92q0,167.13,0,334.25c0,1.28-.23,2.65,1.62,2.85Z"/></g><path class="cls-5" d="M1009.38,207.73c22.21-42,62-45.56,91.92-39.24-74.33,1.59-85.95,53.74-85.95,53.74,18.68-28.12,47.27-40.76,80.75-44,26.4-2.56,32.34-12.91,43.89-19.52-1-13.54,13.18-1,17.69,1.52a28.65,28.65,0,0,0,20.71,3.23,35.76,35.76,0,0,0,7.59-2.57c10.22-4.59,14,2.23,1.14,8.06-28,12.75-75,48.33-55.77,96.43,2,5,9.08,11.34,4.47,11.71-19.25,1.54-32.48-30.83-30.82-46.23-3.85,12.35.62,30.17,7.48,40,6.23,8.9-5.17,4.9-8.07,3-7.47-4.88-14.24-10.79-17.69-21.71-23.71,1-39.18.06-59.19-12,6.3,7,15.71,11.37,22.79,13.19a23.18,23.18,0,0,0,4.7,17.93c5.3,6.63-5.06,3.59-6.35,2.95a25.48,25.48,0,0,1-13.91-17.34,22.24,22.24,0,0,0,3,12c6,9.82-2.87,9.86-9.2,6.16-3.75-2.19-8.38-6.69-13.79-15.34-6.24-10-9.14-24.95-8.72-36.94-24-15-35.22-54.56-21-84.42,16.86-35.46,14.08-71-10.18-58.8C983.28,43,1047,45.85,1035.25,97.82c-7.67,33.9-53,73.59-25.87,109.91Zm78.43-135.59c-5.19-35.87-33.59-51-61.67-49.08-32.82,2.28-65.21,27.44-59.47,62.32,7-44.25,59.47-62.24,86.46-29.16,36.68,45-36.51,90.31-38.62,131,24.7-38,81.47-58.64,73.3-115Zm64.37,82c8.23,6.92,20.15,6.43,29.77,3.17C1171.94,154.59,1162.57,152,1152.18,154.14Z"/></svg>